<svg width="60" height="69" viewBox="0 0 60 69" fill="none" xmlns="http://www.w3.org/2000/svg">
<path d="M40.0487 32.9269C40.0487 34.9887 38.5279 36.6783 36.6015 36.6783C34.7089 36.6783 33.1542 34.9887 33.1542 32.9269C33.1542 30.8654 34.6752 29.1757 36.6015 29.1757C38.528 29.1757 40.0487 30.8654 40.0487 32.9269ZM24.2659 29.1757C22.3394 29.1757 20.8186 30.8654 20.8186 32.9269C20.8186 34.9887 22.3733 36.6783 24.2659 36.6783C26.1922 36.6783 27.713 34.9887 27.713 32.9269C27.747 30.8654 26.1922 29.1757 24.2659 29.1757ZM59.9547 7.7826V68.413C51.4404 60.8887 54.1635 63.3795 44.2731 54.1849L46.0646 60.437H7.73938C3.92054 60.437 0.811419 57.3281 0.811419 53.4748V7.7826C0.811419 3.92967 3.92054 0.820557 7.73938 0.820557H53.0262C56.8455 0.820557 59.9547 3.92967 59.9547 7.7826ZM50.3226 39.8213C50.3226 28.939 45.4561 20.1181 45.4561 20.1181C40.5896 16.4683 35.9593 16.5697 35.9593 16.5697L35.4862 17.1105C41.2317 18.8677 43.9016 21.4025 43.9016 21.4025C35.8734 17.0025 26.4432 17.0018 18.6557 20.4224C17.405 20.9968 16.6616 21.4025 16.6616 21.4025C16.6616 21.4025 19.4667 18.7326 25.5501 16.9752L25.2122 16.5695C25.2122 16.5695 20.582 16.4683 15.7153 20.118C15.7153 20.118 10.8488 28.9388 10.8488 39.8211C10.8488 39.8211 13.6877 44.7216 21.1564 44.9581C21.1564 44.9581 22.407 43.4375 23.4207 42.1531C19.1286 40.8688 17.5067 38.1654 17.5067 38.1654C18.0038 38.5129 18.8236 38.9644 18.8923 39.01C24.5966 42.2049 32.6996 43.2513 39.9812 40.193C41.164 39.7538 42.4822 39.1115 43.8677 38.199C43.8677 38.199 42.1779 40.9705 37.7505 42.2208C38.7646 43.5049 39.9812 44.9581 39.9812 44.9581C47.4501 44.7217 50.3226 39.8213 50.3226 39.8213Z" fill="white"/>
</svg>
