<svg width="154" height="152" viewBox="0 0 154 152" fill="none" xmlns="http://www.w3.org/2000/svg">
<g filter="url(#filter0_d_2_63)">
<ellipse cx="77" cy="75.9893" rx="25" ry="23.9893" fill="url(#paint0_linear_2_63)"/>
</g>
<g clip-path="url(#clip0_2_63)">
<path fill-rule="evenodd" clip-rule="evenodd" d="M73.6863 80.9321H70.3725V77.6724H73.6863V80.9321ZM80.1863 80.9321V77.6724H83.5V80.9321H80.1863ZM70.5 74.5381H67.1863V90.3349H70.3725V87.4514H73.5588V84.0663H80.3137V87.4514H83.5V90.3349H86.6863V74.5381H83.3726V71.5292H86.4314V68.3949H90V65.386H83.7549V68.3949H80.1863V71.5292H73.6863V68.3949H70.1176V65.386H64V68.3949H67.4412V71.5292H70.5V74.5381Z" fill="white"/>
<path d="M64.165 88.3133C64.165 89.3633 64.895 90.0983 65.93 90.0983C66.765 90.0983 67.395 89.6333 67.595 88.8733H66.655C66.51 89.1733 66.245 89.3233 65.92 89.3233C65.395 89.3233 65.035 88.9333 65.035 88.3133C65.035 87.6933 65.395 87.3033 65.92 87.3033C66.245 87.3033 66.51 87.4533 66.655 87.7533H67.595C67.395 86.9933 66.765 86.5233 65.93 86.5233C64.895 86.5233 64.165 87.2633 64.165 88.3133ZM68.9736 88.7783C68.9736 88.2983 69.2086 88.1583 69.6136 88.1583H69.8486V87.2533C69.4736 87.2533 69.1686 87.4533 68.9736 87.7483V87.2833H68.1186V90.0733H68.9736V88.7783ZM65.54 95.9283C65.825 95.9283 66.065 96.1033 66.065 96.4083H64.995C65.045 96.0983 65.26 95.9283 65.54 95.9283ZM66.875 97.1483H65.965C65.895 97.2983 65.76 97.4183 65.52 97.4183C65.245 97.4183 65.02 97.2483 64.99 96.8833H66.925C66.935 96.7983 66.94 96.7133 66.94 96.6333C66.94 95.7833 66.365 95.2433 65.55 95.2433C64.72 95.2433 64.14 95.7933 64.14 96.6783C64.14 97.5633 64.73 98.1133 65.55 98.1133C66.245 98.1133 66.74 97.6933 66.875 97.1483ZM67.2211 96.6733C67.2211 97.5533 67.7661 98.1133 68.4461 98.1133C68.8611 98.1133 69.1561 97.9233 69.3111 97.6783V98.0733H70.1661V95.2833H69.3111V95.6783C69.1611 95.4333 68.8661 95.2433 68.4511 95.2433C67.7661 95.2433 67.2211 95.7933 67.2211 96.6733ZM69.3111 96.6783C69.3111 97.1233 69.0261 97.3683 68.7011 97.3683C68.3811 97.3683 68.0911 97.1183 68.0911 96.6733C68.0911 96.2283 68.3811 95.9883 68.7011 95.9883C69.0261 95.9883 69.3111 96.2333 69.3111 96.6783ZM64.445 105.103C64.445 105.828 64.85 106.073 65.43 106.073H65.865V105.348H65.56C65.37 105.348 65.3 105.278 65.3 105.113V103.993H65.86V103.283H65.3V102.603H64.445V103.283H64.105V103.993H64.445V105.103ZM67.5713 103.928C67.8563 103.928 68.0963 104.103 68.0963 104.408H67.0263C67.0763 104.098 67.2913 103.928 67.5713 103.928ZM68.9063 105.148H67.9963C67.9263 105.298 67.7913 105.418 67.5513 105.418C67.2763 105.418 67.0513 105.248 67.0213 104.883H68.9563C68.9663 104.798 68.9712 104.713 68.9712 104.633C68.9712 103.783 68.3963 103.243 67.5813 103.243C66.7513 103.243 66.1713 103.793 66.1713 104.678C66.1713 105.563 66.7613 106.113 67.5813 106.113C68.2763 106.113 68.7713 105.693 68.9063 105.148ZM64.14 112.673C64.14 113.553 64.685 114.113 65.37 114.113C65.78 114.113 66.075 113.928 66.23 113.673V114.073H67.085V110.373H66.23V111.668C66.06 111.413 65.74 111.243 65.37 111.243C64.685 111.243 64.14 111.793 64.14 112.673ZM66.23 112.678C66.23 113.123 65.945 113.368 65.62 113.368C65.3 113.368 65.01 113.118 65.01 112.673C65.01 112.228 65.3 111.988 65.62 111.988C65.945 111.988 66.23 112.233 66.23 112.678ZM65.165 119.678V118.373H64.31V122.073H65.165V121.683C65.32 121.928 65.615 122.113 66.025 122.113C66.71 122.113 67.255 121.553 67.255 120.673C67.255 119.793 66.715 119.243 66.025 119.243C65.625 119.243 65.32 119.428 65.165 119.678ZM66.385 120.673C66.385 121.118 66.095 121.368 65.77 121.368C65.45 121.368 65.16 121.123 65.16 120.678C65.16 120.233 65.45 119.988 65.77 119.988C66.095 119.988 66.385 120.228 66.385 120.673ZM68.9886 121.028L68.3436 119.283H67.3886L68.5236 121.978L67.8836 123.398H68.8036L70.5536 119.283H69.6286L68.9886 121.028ZM66.46 126.563H64.31V130.073H66.46V129.388H65.165V128.618H66.31V127.958H65.165V127.248H66.46V126.563ZM68.9401 130.073H69.7901V128.443C69.7901 127.693 69.3601 127.253 68.7151 127.253C68.3401 127.253 68.0401 127.418 67.8701 127.653V127.283H67.0151V130.073H67.8701V128.558C67.8701 128.178 68.0801 127.968 68.4051 127.968C68.7301 127.968 68.9401 128.178 68.9401 128.558V130.073ZM66.575 137.263C66.56 136.223 65.05 136.538 65.05 136.093C65.05 135.958 65.16 135.878 65.36 135.878C65.6 135.878 65.745 136.003 65.77 136.193H66.56C66.505 135.643 66.105 135.243 65.385 135.243C64.655 135.243 64.25 135.633 64.25 136.108C64.25 137.133 65.77 136.808 65.77 137.258C65.77 137.383 65.655 137.483 65.435 137.483C65.2 137.483 65.025 137.353 65.005 137.158H64.16C64.2 137.698 64.7 138.113 65.445 138.113C66.145 138.113 66.575 137.748 66.575 137.263ZM67.0981 138.073H67.9531V136.558C67.9531 136.178 68.1631 135.968 68.4881 135.968C68.8131 135.968 69.0231 136.178 69.0231 136.558V138.073H69.8731V136.443C69.8731 135.693 69.4481 135.253 68.8131 135.253C68.4281 135.253 68.1231 135.418 67.9531 135.658V134.373H67.0981V138.073ZM70.4672 138.073H71.3222V135.283H70.4672V138.073ZM70.8972 134.993C71.1972 134.993 71.4022 134.788 71.4022 134.533C71.4022 134.273 71.1972 134.068 70.8972 134.068C70.5922 134.068 70.3872 134.273 70.3872 134.533C70.3872 134.788 70.5922 134.993 70.8972 134.993ZM64.14 144.673C64.14 145.553 64.685 146.113 65.365 146.113C65.78 146.113 66.075 145.923 66.23 145.678V146.073H67.085V143.283H66.23V143.678C66.08 143.433 65.785 143.243 65.37 143.243C64.685 143.243 64.14 143.793 64.14 144.673ZM66.23 144.678C66.23 145.123 65.945 145.368 65.62 145.368C65.3 145.368 65.01 145.118 65.01 144.673C65.01 144.228 65.3 143.988 65.62 143.988C65.945 143.988 66.23 144.233 66.23 144.678Z" fill="white"/>
<path d="M64.395 90.373H65.25V88.293H65.71V87.583H65.25V87.558C65.25 87.263 65.365 87.163 65.695 87.183V86.458C64.845 86.413 64.395 86.773 64.395 87.503V87.583H64.085V88.293H64.395V90.373ZM66.9668 89.078C66.9668 88.598 67.2018 88.458 67.6068 88.458H67.8418V87.553C67.4668 87.553 67.1618 87.753 66.9668 88.048V87.583H66.1118V90.373H66.9668V89.078ZM70.9804 88.978C70.9804 88.093 70.3504 87.543 69.5304 87.543C68.7154 87.543 68.0804 88.093 68.0804 88.978C68.0804 89.863 68.7004 90.413 69.5204 90.413C70.3404 90.413 70.9804 89.863 70.9804 88.978ZM68.9504 88.978C68.9504 88.503 69.2204 88.283 69.5304 88.283C69.8304 88.283 70.1104 88.503 70.1104 88.978C70.1104 89.448 69.8254 89.673 69.5204 89.673C69.2104 89.673 68.9504 89.448 68.9504 88.978ZM68.155 98.373H69.005V96.743C69.005 95.993 68.56 95.553 67.87 95.553C67.465 95.553 67.115 95.778 66.93 96.073C66.74 95.738 66.4 95.553 65.98 95.553C65.615 95.553 65.33 95.708 65.165 95.933V95.583H64.31V98.373H65.165V96.858C65.165 96.493 65.375 96.293 65.7 96.293C66.025 96.293 66.235 96.493 66.235 96.858V98.373H67.085V96.858C67.085 96.493 67.295 96.293 67.62 96.293C67.945 96.293 68.155 96.493 68.155 96.858V98.373ZM64.445 105.403C64.445 106.128 64.85 106.373 65.43 106.373H65.865V105.648H65.56C65.37 105.648 65.3 105.578 65.3 105.413V104.293H65.86V103.583H65.3V102.903H64.445V103.583H64.105V104.293H64.445V105.403ZM66.3413 106.373H67.1963V104.858C67.1963 104.478 67.4063 104.268 67.7313 104.268C68.0563 104.268 68.2663 104.478 68.2663 104.858V106.373H69.1163V104.743C69.1163 103.993 68.6913 103.553 68.0563 103.553C67.6713 103.553 67.3663 103.718 67.1963 103.958V102.673H66.3413V106.373ZM65.54 112.228C65.825 112.228 66.065 112.403 66.065 112.708H64.995C65.045 112.398 65.26 112.228 65.54 112.228ZM66.875 113.448H65.965C65.895 113.598 65.76 113.718 65.52 113.718C65.245 113.718 65.02 113.548 64.99 113.183H66.925C66.935 113.098 66.94 113.013 66.94 112.933C66.94 112.083 66.365 111.543 65.55 111.543C64.72 111.543 64.14 112.093 64.14 112.978C64.14 113.863 64.73 114.413 65.55 114.413C66.245 114.413 66.74 113.993 66.875 113.448ZM66.595 118.863V121.038L65.165 118.863H64.31V122.373H65.165V120.208L66.595 122.373H67.45V118.863H66.595ZM70.7998 120.978C70.7998 120.093 70.1698 119.543 69.3498 119.543C68.5348 119.543 67.8998 120.093 67.8998 120.978C67.8998 121.863 68.5198 122.413 69.3398 122.413C70.1598 122.413 70.7998 121.863 70.7998 120.978ZM68.7698 120.978C68.7698 120.503 69.0398 120.283 69.3498 120.283C69.6498 120.283 69.9298 120.503 69.9298 120.978C69.9298 121.448 69.6448 121.673 69.3398 121.673C69.0298 121.673 68.7698 121.448 68.7698 120.978ZM67.065 127.583H66.21V129.098C66.21 129.478 66 129.688 65.67 129.688C65.35 129.688 65.135 129.478 65.135 129.098V127.583H64.285V129.213C64.285 129.958 64.72 130.403 65.365 130.403C65.74 130.403 66.04 130.233 66.21 129.993V130.373H67.065V127.583ZM69.6041 130.373H70.4541V128.743C70.4541 127.993 70.0241 127.553 69.3791 127.553C69.0041 127.553 68.7041 127.718 68.5341 127.953V127.583H67.6791V130.373H68.5341V128.858C68.5341 128.478 68.7441 128.268 69.0691 128.268C69.3941 128.268 69.6041 128.478 69.6041 128.858V130.373ZM65.165 136.433V135.553H65.63C65.97 135.553 66.115 135.723 66.115 135.993C66.115 136.263 65.97 136.433 65.63 136.433H65.165ZM66.985 135.993C66.985 135.348 66.555 134.863 65.695 134.863H64.31V138.373H65.165V137.113H65.695C66.59 137.113 66.985 136.573 66.985 135.993ZM68.2851 137.078C68.2851 136.598 68.5201 136.458 68.9251 136.458H69.1601V135.553C68.7851 135.553 68.4801 135.753 68.2851 136.048V135.583H67.4301V138.373H68.2851V137.078ZM67.04 144.978C67.04 144.093 66.41 143.543 65.59 143.543C64.775 143.543 64.14 144.093 64.14 144.978C64.14 145.863 64.76 146.413 65.58 146.413C66.4 146.413 67.04 145.863 67.04 144.978ZM65.01 144.978C65.01 144.503 65.28 144.283 65.59 144.283C65.89 144.283 66.17 144.503 66.17 144.978C66.17 145.448 65.885 145.673 65.58 145.673C65.27 145.673 65.01 145.448 65.01 144.978ZM67.9186 143.293C68.2186 143.293 68.4236 143.088 68.4236 142.833C68.4236 142.573 68.2186 142.368 67.9186 142.368C67.6136 142.368 67.4086 142.573 67.4086 142.833C67.4086 143.088 67.6136 143.293 67.9186 143.293ZM67.4936 143.583V146.743C67.4936 146.908 67.4236 146.978 67.2336 146.978H67.0286V147.703H67.3636C67.9436 147.703 68.3486 147.458 68.3486 146.733V143.583H67.4936ZM70.1933 144.228C70.4783 144.228 70.7183 144.403 70.7183 144.708H69.6483C69.6983 144.398 69.9133 144.228 70.1933 144.228ZM71.5283 145.448H70.6183C70.5483 145.598 70.4133 145.718 70.1733 145.718C69.8983 145.718 69.6733 145.548 69.6433 145.183H71.5783C71.5883 145.098 71.5933 145.013 71.5933 144.933C71.5933 144.083 71.0183 143.543 70.2033 143.543C69.3733 143.543 68.7933 144.093 68.7933 144.978C68.7933 145.863 69.3833 146.413 70.2033 146.413C70.8983 146.413 71.3933 145.993 71.5283 145.448ZM64.14 152.978C64.14 153.863 64.72 154.413 65.54 154.413C66.24 154.413 66.735 154.008 66.88 153.363H65.97C65.895 153.568 65.76 153.683 65.525 153.683C65.22 153.683 65.01 153.443 65.01 152.978C65.01 152.513 65.22 152.273 65.525 152.273C65.76 152.273 65.9 152.398 65.97 152.593H66.88C66.735 151.928 66.24 151.543 65.54 151.543C64.72 151.543 64.14 152.098 64.14 152.978ZM67.4723 153.403C67.4723 154.128 67.8773 154.373 68.4573 154.373H68.8923V153.648H68.5873C68.3973 153.648 68.3273 153.578 68.3273 153.413V152.293H68.8873V151.583H68.3273V150.903H67.4723V151.583H67.1323V152.293H67.4723V153.403Z" fill="white"/>
</g>
<defs>
<filter id="filter0_d_2_63" x="0" y="0" width="154" height="151.979" filterUnits="userSpaceOnUse" color-interpolation-filters="sRGB">
<feFlood flood-opacity="0" result="BackgroundImageFix"/>
<feColorMatrix in="SourceAlpha" type="matrix" values="0 0 0 0 0 0 0 0 0 0 0 0 0 0 0 0 0 0 127 0" result="hardAlpha"/>
<feOffset/>
<feGaussianBlur stdDeviation="26"/>
<feComposite in2="hardAlpha" operator="out"/>
<feColorMatrix type="matrix" values="0 0 0 0 0.956863 0 0 0 0 0.909804 0 0 0 0 0.0117647 0 0 0 0.61 0"/>
<feBlend mode="normal" in2="BackgroundImageFix" result="effect1_dropShadow_2_63"/>
<feBlend mode="normal" in="SourceGraphic" in2="effect1_dropShadow_2_63" result="shape"/>
</filter>
<linearGradient id="paint0_linear_2_63" x1="77" y1="52" x2="77" y2="99.9786" gradientUnits="userSpaceOnUse">
<stop stop-color="#F4E803"/>
<stop offset="0.692708" stop-color="#F4A003"/>
</linearGradient>
<clipPath id="clip0_2_63">
<rect width="26" height="24.9489" fill="white" transform="translate(64 63.5149)"/>
</clipPath>
</defs>
</svg>
